<svg id="Layer_1" data-name="Layer 1" xmlns="http://www.w3.org/2000/svg" xmlns:xlink="http://www.w3.org/1999/xlink" viewBox="0 -61.315 735.95 735.95"><defs><style>.cls-1{fill:none;stroke-miterlimit:10;stroke-width:4.14px;stroke:url(#linear-gradient);}.cls-2{fill:url(#linear-gradient-2);}</style><linearGradient id="linear-gradient" x1="120.69" y1="411.9" x2="856.64" y2="411.9" gradientUnits="userSpaceOnUse"><stop offset="0.04" stop-color="#964b41"/><stop offset="0.08" stop-color="#893c53"/><stop offset="0.14" stop-color="#7e3063"/><stop offset="0.2" stop-color="#78286c"/><stop offset="0.29" stop-color="#76266f"/><stop offset="0.37" stop-color="#813360"/><stop offset="0.48" stop-color="#893d56"/><stop offset="0.59" stop-color="#8c4052"/><stop offset="0.77" stop-color="#7f3064"/><stop offset="0.91" stop-color="#79296c"/></linearGradient><linearGradient id="linear-gradient-2" x1="124.32" y1="411.9" x2="855.08" y2="411.9" gradientUnits="userSpaceOnUse"><stop offset="0.03" stop-color="#964b41"/><stop offset="0.05" stop-color="#964b41"/><stop offset="0.1" stop-color="#8b3e52"/><stop offset="0.19" stop-color="#7b2c67"/><stop offset="0.25" stop-color="#76266f"/><stop offset="0.34" stop-color="#7e2f64"/><stop offset="0.44" stop-color="#8c4052"/><stop offset="0.62" stop-color="#8b3e54"/><stop offset="0.69" stop-color="#85385b"/><stop offset="0.73" stop-color="#7c2d66"/><stop offset="0.75" stop-color="#76266e"/><stop offset="1" stop-color="#76266e"/><stop offset="1" stop-color="#76266e"/></linearGradient></defs><path class="cls-1" d="M249.53,579.09c.05-.09,31.91-76.55,103.45-15.66,72.56,61.76,215.95,245.9,318.12,95.16,20.71-30.55,30.77-67.09,37.75-104.08C728.6,449.84,662.42,302.3,556.16,219.69c-126.94-89.9-254-163.18-367.35-67.05-21,17.79-37.85,40.81-49.92,66.37-58.76,124.37,54.75,222.1,152.79,222.1,438.8,0,476.32-24,484.83,57.6l77-11.42c-.06-.1-20.35-58.09-112-56.47L352.3,436.64c-67.07,0-99.66-2.2-126.18-40.5-19-27.46-27.07-61.88-24.83-96,2.27-34.48,13.9-65.07,35.05-89.58,26.37-30.57,79.45-66.89,150-60.5,33.95,3.08,170.1,37.86,230.52,143,28.27,49.2,43.41,106.36,40.48,164-1.8,35.35-9.91,70.51-26.09,107.93-7.77,18-17.22,35.16-29.2,50.24-138.85,174.81-284.65-203.53-416.47-85Z" transform="translate(-120.69 -105.25)"/><path class="cls-2" d="M249.53,579.09c.05-.09,31.91-76.55,103.45-15.66,72.56,61.76,215.95,245.9,318.12,95.16,20.71-30.55,30.77-67.09,37.75-104.08C728.6,449.84,662.42,302.3,556.16,219.69c-126.94-89.9-254-163.18-367.35-67.05-21,17.79-37.85,40.81-49.92,66.37-58.76,124.37,54.75,222.1,152.79,222.1,438.8,0,476.32-24,484.83,57.6l77-11.42c-.06-.1-20.35-58.09-112-56.47L352.3,436.64c-67.07,0-99.66-2.2-126.18-40.5-19-27.46-27.07-61.88-24.83-96,2.27-34.48,13.9-65.07,35.05-89.58,26.37-30.57,79.45-66.89,150-60.5,33.95,3.08,170.1,37.86,230.52,143,28.27,49.2,43.41,106.36,40.48,164-1.8,35.35-9.91,70.51-26.09,107.93-7.77,18-17.22,35.16-29.2,50.24-138.85,174.81-284.65-203.53-416.47-85Z" transform="translate(-120.69 -105.25)"/></svg>
