<svg id="Layer_1" data-name="Layer 1" xmlns="http://www.w3.org/2000/svg" xmlns:xlink="http://www.w3.org/1999/xlink" viewBox="0 0 1367.03 723.63"><defs><style>.cls-1{fill:#76266f;}.cls-2{fill:none;stroke-miterlimit:10;stroke-width:4.14px;stroke:url(#linear-gradient);}.cls-3{fill:url(#linear-gradient-2);}</style><linearGradient id="linear-gradient" x1="261.79" y1="483.71" x2="997.74" y2="483.71" gradientUnits="userSpaceOnUse"><stop offset="0.04" stop-color="#964b41"/><stop offset="0.08" stop-color="#893c53"/><stop offset="0.14" stop-color="#7e3063"/><stop offset="0.2" stop-color="#78286c"/><stop offset="0.29" stop-color="#76266f"/><stop offset="0.37" stop-color="#813360"/><stop offset="0.48" stop-color="#893d56"/><stop offset="0.59" stop-color="#8c4052"/><stop offset="0.77" stop-color="#7f3064"/><stop offset="0.91" stop-color="#79296c"/></linearGradient><linearGradient id="linear-gradient-2" x1="265.41" y1="483.71" x2="996.18" y2="483.71" gradientUnits="userSpaceOnUse"><stop offset="0.03" stop-color="#964b41"/><stop offset="0.05" stop-color="#964b41"/><stop offset="0.1" stop-color="#8b3e52"/><stop offset="0.19" stop-color="#7b2c67"/><stop offset="0.25" stop-color="#76266f"/><stop offset="0.34" stop-color="#7e2f64"/><stop offset="0.44" stop-color="#8c4052"/><stop offset="0.62" stop-color="#8b3e54"/><stop offset="0.69" stop-color="#85385b"/><stop offset="0.73" stop-color="#7c2d66"/><stop offset="0.75" stop-color="#76266e"/><stop offset="1" stop-color="#76266e"/><stop offset="1" stop-color="#76266e"/></linearGradient></defs><path class="cls-1" d="M1130.57,695.57q0,43.27-32,76.37t-71.89,33.11q-39.93,0-65.84-23.37-25.5-23.79-25.5-61.88,0-12.1,6.06-36.56T947.49,646q0-12.75-8.16-18.6c-5.43-3.9-8.15-8.29-8.15-13.21q0-5.61,14.22-10.81,11.28-5.62,20.27-5.62t14.84,12.54q4.17,8.67,4.18,23.59T977,680.21q-7.76,31.38-7.74,52.14t13,40.9q13,20.12,36.36,20.11,33.45,0,54.76-38.94,18-32.88,18-67.72t-15.47-62.53l-16.3-23.8c1.94-2.59,4-3.9,6.27-3.9q24.24,0,45.56,38.09Q1130.57,667.44,1130.57,695.57ZM1086.26,506.9q0,9.52-5.43,15.15l-55.6,58.42-8.36-1.3L1057,500.85q4.61-8.67,15.47-8.66Q1086.26,492.19,1086.26,506.9Z" transform="translate(-261.79 -177.05)"/><path class="cls-1" d="M1270.17,594.75q41,0,67.94,27.26t27,72.48q0,45.22-27.59,77.89t-73.57,32.67q-53.92,0-82.35-61.88,0,38.52,13.79,70.1,8.36,19.9,26.34,42.41,13.8,18.6,13.8,26t-7.11,13.2a24.92,24.92,0,0,1-16.31,5.84q-28.83,0-40.12-67.07-6.69-38.52-6.69-93.69t23.41-96.27Q1217.09,594.75,1270.17,594.75Zm40.14,158.37q15-32,15-65.34t-10-53.22q-13-26.4-38.87-26.4-33.87,0-53.92,39.81-16.72,32.89-16.72,66.64t13.79,55.61q13.79,21.85,40.55,21.85Q1291.07,792.07,1310.31,753.12Z" transform="translate(-261.79 -177.05)"/><path class="cls-1" d="M1628.82,757a62.87,62.87,0,0,1-7.1,29.86q-8,16-24,16t-28.21-26.83q-5-9.94-13.38-43.28-16.3,32.9-35.74,51.5t-51.21,18.61q-31.77,0-52.88-27.48t-21.11-63q0-45.87,21.32-79.19,24.24-38.07,66.88-38.08,59.36,0,65.21,77.89l27.17-72.7h42.64L1563.19,721.1a73.13,73.13,0,0,0,15.89,29.21q11.28,12.78,24.66,12.77T1628,746.63A78.8,78.8,0,0,1,1628.82,757Zm-89.88-68.81q0-25.53-11.7-44.13-14.62-21.63-37.19-21.64-29.68,0-47.66,38.08a147.53,147.53,0,0,0-15.05,64.9q0,64.05,36,64.05,22.56,0,49.11-40.89T1538.94,688.21Z" transform="translate(-261.79 -177.05)"/><path class="cls-2" d="M390.63,650.89c0-.08,31.91-76.55,103.45-15.66C566.64,697,710,881.13,812.2,730.4,832.91,699.84,843,663.31,850,626.32,869.7,521.64,803.52,374.1,697.26,291.49c-126.94-89.9-254-163.18-367.35-67.05-21,17.79-37.85,40.82-49.93,66.37-58.75,124.37,54.76,222.1,152.8,222.1,438.8,0,476.32-24,484.83,57.6l77-11.42c0-.1-20.35-58.09-112-56.46l-389.23,5.81c-67.07,0-99.65-2.2-126.18-40.49-19-27.47-27.06-61.89-24.82-96,2.27-34.48,13.9-65.07,35.05-89.58,26.37-30.57,79.45-66.88,150-60.49,34,3.07,170.1,37.86,230.52,143,28.27,49.19,43.4,106.35,40.47,164-1.79,35.36-9.9,70.51-26.08,107.93-7.77,18-17.22,35.17-29.2,50.25-138.85,174.8-284.65-203.53-416.47-85Z" transform="translate(-261.79 -177.05)"/><path class="cls-3" d="M390.63,650.89c0-.08,31.91-76.55,103.45-15.66C566.64,697,710,881.13,812.2,730.4,832.91,699.84,843,663.31,850,626.32,869.7,521.64,803.52,374.1,697.26,291.49c-126.94-89.9-254-163.18-367.35-67.05-21,17.79-37.85,40.82-49.93,66.37-58.75,124.37,54.76,222.1,152.8,222.1,438.8,0,476.32-24,484.83,57.6l77-11.42c0-.1-20.35-58.09-112-56.46l-389.23,5.81c-67.07,0-99.65-2.2-126.18-40.49-19-27.47-27.06-61.89-24.82-96,2.27-34.48,13.9-65.07,35.05-89.58,26.37-30.57,79.45-66.88,150-60.49,34,3.07,170.1,37.86,230.52,143,28.27,49.19,43.4,106.35,40.47,164-1.79,35.36-9.9,70.51-26.08,107.93-7.77,18-17.22,35.17-29.2,50.25-138.85,174.8-284.65-203.53-416.47-85Z" transform="translate(-261.79 -177.05)"/></svg>
